<?xml version="1.0" encoding="UTF-8" ?>
<!DOCTYPE svg PUBLIC "-//W3C//DTD SVG 1.1//EN" "http://www.w3.org/Graphics/SVG/1.1/DTD/svg11.dtd">
<svg width="470pt" height="470pt" viewBox="0 0 470 470" version="1.1" xmlns="http://www.w3.org/2000/svg">
<path fill="#fcfcfb" d=" M 0.00 0.00 L 470.00 0.00 L 470.00 470.00 L 0.00 470.00 L 0.00 0.00 Z" />
<path fill="#646001" d=" M 30.36 8.58 C 165.57 8.38 300.78 8.58 435.99 8.48 C 446.52 7.88 456.66 15.19 460.13 25.03 C 462.07 29.43 461.42 34.32 461.51 38.98 C 461.50 172.01 461.51 305.05 461.51 438.08 C 461.14 450.65 449.57 461.83 436.95 461.53 C 407.30 461.48 377.65 461.52 348.00 461.51 C 338.34 461.33 328.69 462.16 319.04 461.56 C 298.04 461.44 277.05 461.55 256.05 461.50 C 243.06 461.87 230.05 461.91 217.05 461.50 C 155.37 461.51 93.69 461.50 32.01 461.51 C 19.77 461.19 8.88 450.28 8.50 438.06 C 8.49 302.70 8.50 167.35 8.50 32.00 C 8.88 20.29 18.79 9.90 30.36 8.58 Z" />
<path fill="#fcfcfb" d=" M 373.41 107.90 C 378.44 102.65 383.57 97.49 388.75 92.39 C 404.52 107.84 416.37 127.31 422.42 148.57 C 427.17 164.21 427.76 180.73 426.55 196.93 C 423.55 225.95 409.86 253.61 389.00 273.95 C 383.89 268.59 378.53 263.47 373.46 258.06 C 388.59 242.79 399.66 223.20 403.32 201.90 C 410.15 168.16 398.04 131.74 373.41 107.90 Z" />
<path fill="#fcfcfb" d=" M 346.87 135.04 C 351.24 130.43 355.61 125.82 360.09 121.32 C 373.16 133.92 381.99 150.91 384.69 168.88 C 389.46 196.04 379.37 225.04 359.45 243.98 C 355.35 239.89 351.23 235.82 347.23 231.64 C 360.14 219.00 367.75 201.07 367.44 182.97 C 367.63 165.03 359.66 147.48 346.87 135.04 Z" />
<path fill="#fcfcfb" d=" M 148.08 124.87 C 151.47 123.53 155.53 123.51 158.92 124.88 C 162.52 125.13 166.22 124.60 169.73 125.64 C 171.36 125.94 173.01 126.21 174.62 126.63 C 175.93 126.95 177.24 127.26 178.54 127.65 C 179.55 127.96 180.56 128.28 181.56 128.61 C 183.95 129.44 186.22 130.58 188.47 131.74 C 189.53 132.22 190.58 132.71 191.65 133.18 C 193.30 134.21 194.88 135.36 196.44 136.52 C 199.88 139.02 202.76 142.20 205.66 145.29 C 207.72 148.67 210.05 151.88 211.84 155.43 C 212.36 156.76 212.88 158.10 213.34 159.46 C 213.69 160.45 214.02 161.45 214.35 162.46 C 214.74 163.74 215.07 165.05 215.41 166.36 C 216.07 168.88 216.01 171.52 216.18 174.11 C 217.39 177.20 217.45 180.84 216.14 183.91 C 215.97 186.85 216.21 189.87 215.36 192.73 C 215.05 194.36 214.78 196.00 214.36 197.62 C 214.05 198.93 213.74 200.25 213.36 201.55 C 213.02 202.55 212.68 203.56 212.32 204.56 C 211.97 205.60 211.58 206.63 211.18 207.66 C 211.12 208.11 210.98 209.00 210.91 209.44 C 210.60 209.97 209.98 211.02 209.67 211.55 C 209.08 213.23 208.48 214.91 207.82 216.57 C 207.29 217.52 206.77 218.47 206.25 219.42 C 205.75 220.47 205.24 221.51 204.74 222.56 C 203.91 224.18 203.10 225.83 202.31 227.47 C 201.46 228.84 200.53 230.16 199.68 231.53 C 199.23 232.50 198.78 233.47 198.33 234.45 C 197.29 236.10 196.20 237.72 195.26 239.42 C 194.45 240.83 193.55 242.18 192.75 243.59 C 191.23 246.33 189.35 248.86 187.75 251.56 C 185.64 255.37 182.96 258.83 180.73 262.57 C 172.04 276.22 162.99 289.66 153.82 302.99 C 173.21 303.01 192.61 303.00 212.00 303.00 C 212.00 315.00 212.00 327.00 212.00 339.00 C 173.33 339.00 134.67 339.00 96.00 339.00 C 96.40 333.72 95.05 328.15 96.88 323.09 C 97.19 318.02 96.69 312.92 97.31 307.87 C 98.31 306.41 99.35 304.97 100.28 303.46 C 101.20 301.73 102.27 300.09 103.26 298.40 C 104.20 296.70 105.27 295.08 106.25 293.40 C 107.78 290.65 109.66 288.13 111.27 285.43 C 112.20 283.72 113.27 282.09 114.25 280.41 C 115.20 278.71 116.27 277.09 117.26 275.41 C 118.20 273.71 119.28 272.08 120.27 270.40 C 121.21 268.70 122.28 267.08 123.26 265.40 C 124.37 263.43 125.63 261.55 126.73 259.58 C 127.72 257.89 128.80 256.26 129.73 254.54 C 130.56 253.14 131.49 251.81 132.35 250.43 C 132.57 249.92 132.99 248.90 133.21 248.39 C 134.37 246.43 135.64 244.55 136.74 242.56 C 137.55 241.16 138.45 239.82 139.26 238.42 C 140.19 236.71 141.27 235.09 142.27 233.43 C 143.74 230.29 145.78 227.48 147.29 224.37 C 148.23 222.69 149.29 221.08 150.29 219.43 C 150.77 218.47 151.26 217.51 151.75 216.56 C 152.23 215.49 152.73 214.43 153.21 213.37 C 154.21 211.69 155.30 210.08 156.34 208.44 C 157.82 205.54 159.01 202.50 160.25 199.49 C 161.41 197.18 162.26 194.74 163.29 192.38 C 163.79 191.07 164.23 189.75 164.72 188.45 C 165.03 187.42 165.35 186.41 165.69 185.41 C 166.00 184.01 166.31 182.60 166.75 181.24 C 166.99 179.16 167.00 177.00 167.90 175.06 C 167.95 173.35 167.94 171.64 167.90 169.93 C 167.23 168.24 166.99 166.44 166.69 164.67 C 166.35 163.53 166.06 162.38 165.79 161.22 C 164.03 159.54 162.28 157.85 160.39 156.32 C 156.79 155.86 153.13 155.87 149.53 156.31 C 148.08 157.55 146.72 158.89 145.53 160.39 C 144.58 162.81 143.96 165.35 143.09 167.80 C 142.89 178.53 143.05 189.27 143.00 200.00 C 127.33 200.00 111.67 200.00 96.00 200.00 C 96.43 194.39 95.02 188.48 96.88 183.09 C 97.38 178.14 96.28 173.02 97.71 168.19 C 97.96 166.24 98.16 164.29 98.58 162.37 C 98.92 161.16 99.24 159.94 99.63 158.75 C 100.58 156.66 101.35 154.50 102.18 152.37 C 103.82 149.65 105.68 147.06 107.35 144.35 C 108.08 143.45 108.82 142.55 109.55 141.65 C 110.78 139.53 112.54 137.76 114.67 136.55 C 115.56 135.81 116.45 135.06 117.35 134.32 C 119.39 133.07 121.39 131.76 123.52 130.67 C 125.80 129.57 128.07 128.45 130.44 127.56 C 131.74 127.23 133.07 126.97 134.39 126.71 C 135.69 126.28 137.03 125.94 138.36 125.58 C 141.53 124.73 144.84 125.06 148.08 124.87 Z" />
<path fill="#fcfcfb" d=" M 226.00 128.00 C 242.34 127.99 258.68 128.02 275.02 127.98 C 276.69 127.96 278.39 128.10 279.91 128.88 C 287.22 129.25 294.55 128.70 301.85 129.17 C 302.37 129.34 303.40 129.68 303.91 129.85 C 306.88 130.05 309.94 129.73 312.81 130.70 C 314.71 130.96 316.64 131.15 318.53 131.54 C 319.53 131.90 320.53 132.28 321.53 132.67 C 322.90 133.14 324.25 133.67 325.60 134.22 C 326.10 134.46 327.11 134.94 327.62 135.18 C 329.75 136.44 331.61 138.12 333.80 139.32 C 335.14 140.66 336.41 142.07 337.47 143.66 C 338.19 144.55 338.92 145.45 339.65 146.34 C 340.68 148.05 341.80 149.70 342.85 151.40 C 343.36 152.74 343.88 154.09 344.33 155.46 C 344.68 156.45 345.02 157.45 345.35 158.46 C 345.74 159.74 346.06 161.05 346.40 162.36 C 346.84 164.28 347.03 166.24 347.30 168.19 C 348.46 171.70 347.84 175.45 348.12 179.08 C 349.53 183.45 349.53 188.55 348.12 192.92 C 347.83 196.54 348.47 200.30 347.29 203.81 C 347.03 205.71 346.85 207.63 346.48 209.53 C 346.09 210.54 345.68 211.54 345.27 212.54 C 345.00 213.49 344.72 214.43 344.44 215.37 C 343.49 216.83 342.49 218.26 341.63 219.77 C 341.01 220.39 340.39 221.01 339.77 221.63 C 338.29 222.47 336.89 223.45 335.45 224.36 C 333.84 225.10 332.21 225.80 330.54 226.41 C 329.25 226.77 327.95 227.07 326.65 227.39 C 324.17 228.13 321.55 228.00 318.99 228.07 C 319.00 228.49 319.00 229.33 319.00 229.75 C 320.51 229.98 322.03 230.21 323.52 230.58 C 324.53 230.92 325.53 231.27 326.53 231.64 C 328.23 232.22 329.88 232.92 331.50 233.69 C 331.99 233.93 332.97 234.42 333.46 234.66 C 336.49 236.49 339.63 238.42 341.45 241.58 C 342.44 242.86 343.44 244.13 344.34 245.48 C 344.58 245.98 345.08 246.97 345.33 247.47 C 346.19 249.37 346.92 251.33 347.49 253.34 C 348.52 258.53 347.71 263.85 348.12 269.09 C 348.91 270.62 349.04 272.35 349.02 274.05 C 348.98 295.70 349.01 317.35 349.00 339.00 C 332.00 339.00 315.00 339.00 298.00 339.00 C 297.91 310.96 298.18 282.92 297.86 254.88 C 297.04 252.80 296.96 250.55 296.52 248.39 C 295.61 247.40 294.65 246.46 293.63 245.61 C 292.14 245.11 290.64 244.64 289.17 244.09 C 286.45 243.99 283.72 243.99 281.00 244.00 C 281.00 275.67 281.00 307.33 281.00 339.00 C 262.67 339.00 244.33 339.00 226.00 339.00 C 226.00 268.67 226.00 198.33 226.00 128.00 Z" />
<path fill="#646001" d=" M 281.00 164.00 C 283.72 164.00 286.45 163.99 289.18 164.09 C 290.35 164.54 291.55 164.93 292.76 165.29 C 294.08 166.60 295.40 167.91 296.71 169.24 C 297.06 170.44 297.46 171.64 297.91 172.82 C 298.05 182.60 298.06 192.39 297.91 202.17 C 297.33 203.64 296.89 205.15 296.43 206.65 C 295.33 207.93 294.01 209.00 292.68 210.02 C 288.94 211.48 284.90 210.91 281.00 210.99 C 281.00 195.33 281.00 179.66 281.00 164.00 Z" />
</svg>
